<svg id="Group_1122" data-name="Group 1122" xmlns="http://www.w3.org/2000/svg" xmlns:xlink="http://www.w3.org/1999/xlink" width="110.898" height="35.945" viewBox="0 0 110.898 35.945">
  <defs>
    <linearGradient id="linear-gradient" x1="0.5" x2="0.5" y2="1" gradientUnits="objectBoundingBox">
      <stop offset="0" stop-color="#d54315"/>
      <stop offset="1" stop-color="#a42910"/>
    </linearGradient>
  </defs>
  <path id="Path_808" data-name="Path 808" d="M5.914-10.036,3.632-5.641v2.5H2.5v-2.5L.21-10.036H1.47l1.6,3.383,1.6-3.383ZM8.96-3.052a2.8,2.8,0,0,1-1.4-.352A2.53,2.53,0,0,1,6.579-4.4a2.992,2.992,0,0,1-.357-1.483,2.935,2.935,0,0,1,.367-1.478,2.535,2.535,0,0,1,1-.992A2.907,2.907,0,0,1,9.009-8.7a2.907,2.907,0,0,1,1.419.347,2.535,2.535,0,0,1,1,.992A2.935,2.935,0,0,1,11.8-5.879,2.874,2.874,0,0,1,11.42-4.4a2.61,2.61,0,0,1-1.027,1A2.959,2.959,0,0,1,8.96-3.052Zm0-.982a1.683,1.683,0,0,0,.818-.208,1.587,1.587,0,0,0,.62-.625,2.009,2.009,0,0,0,.238-1.012,2.051,2.051,0,0,0-.228-1.007,1.54,1.54,0,0,0-.605-.62,1.655,1.655,0,0,0-.813-.208,1.627,1.627,0,0,0-.809.208,1.487,1.487,0,0,0-.59.62,2.128,2.128,0,0,0-.218,1.007,1.918,1.918,0,0,0,.451,1.364A1.492,1.492,0,0,0,8.96-4.034Zm8.69-4.573v5.466H16.519v-.645a1.83,1.83,0,0,1-.7.531,2.218,2.218,0,0,1-.918.193,2.451,2.451,0,0,1-1.156-.268,1.935,1.935,0,0,1-.8-.794,2.574,2.574,0,0,1-.293-1.27V-8.607h1.121v3.046a1.586,1.586,0,0,0,.367,1.126,1.306,1.306,0,0,0,1,.392,1.322,1.322,0,0,0,1.007-.392,1.573,1.573,0,0,0,.372-1.126V-8.607Zm2.4.794a1.776,1.776,0,0,1,.66-.65,1.951,1.951,0,0,1,.977-.233v1.171H21.4a1.377,1.377,0,0,0-1.007.337,1.613,1.613,0,0,0-.342,1.171v2.877H18.92V-8.607h1.131Zm7.192,4.762a2.8,2.8,0,0,1-1.4-.352,2.53,2.53,0,0,1-.982-.992A2.992,2.992,0,0,1,24.5-5.879a2.935,2.935,0,0,1,.367-1.478,2.535,2.535,0,0,1,1-.992A2.907,2.907,0,0,1,27.292-8.7a2.907,2.907,0,0,1,1.419.347,2.535,2.535,0,0,1,1,.992,2.935,2.935,0,0,1,.367,1.478A2.874,2.874,0,0,1,29.7-4.4a2.61,2.61,0,0,1-1.027,1A2.959,2.959,0,0,1,27.243-3.052Zm0-.982a1.683,1.683,0,0,0,.818-.208,1.587,1.587,0,0,0,.62-.625,2.009,2.009,0,0,0,.238-1.012,2.051,2.051,0,0,0-.228-1.007,1.54,1.54,0,0,0-.605-.62,1.655,1.655,0,0,0-.813-.208,1.627,1.627,0,0,0-.809.208,1.487,1.487,0,0,0-.59.62,2.128,2.128,0,0,0-.218,1.007,1.918,1.918,0,0,0,.451,1.364A1.492,1.492,0,0,0,27.243-4.034ZM33.74-8.7a2.451,2.451,0,0,1,1.156.268,1.9,1.9,0,0,1,.8.794,2.611,2.611,0,0,1,.288,1.27v3.224H34.861V-6.2a1.587,1.587,0,0,0-.367-1.126,1.306,1.306,0,0,0-1-.392,1.322,1.322,0,0,0-1.007.392A1.573,1.573,0,0,0,32.114-6.2v3.055H30.983V-8.607h1.131v.625a1.872,1.872,0,0,1,.709-.526A2.267,2.267,0,0,1,33.74-8.7Zm4.593-1.786v7.341H37.2v-7.341Zm1.845,1.151a.7.7,0,0,1-.516-.208.7.7,0,0,1-.208-.516.7.7,0,0,1,.208-.516.7.7,0,0,1,.516-.208.689.689,0,0,1,.506.208.7.7,0,0,1,.208.516.7.7,0,0,1-.208.516A.689.689,0,0,1,40.179-9.332Zm.556.724v5.466H39.6V-8.607ZM44.762-8.7a2.451,2.451,0,0,1,1.156.268,1.9,1.9,0,0,1,.8.794A2.611,2.611,0,0,1,47-6.365v3.224H45.883V-6.2a1.586,1.586,0,0,0-.367-1.126,1.306,1.306,0,0,0-1-.392,1.322,1.322,0,0,0-1.007.392A1.573,1.573,0,0,0,43.135-6.2v3.055H42V-8.607h1.131v.625a1.872,1.872,0,0,1,.709-.526A2.267,2.267,0,0,1,44.762-8.7Zm8.472,2.688a3.536,3.536,0,0,1-.04.556H49.018A1.517,1.517,0,0,0,49.5-4.4a1.534,1.534,0,0,0,1.071.4,1.323,1.323,0,0,0,1.29-.764h1.22a2.462,2.462,0,0,1-.9,1.235,2.634,2.634,0,0,1-1.612.481,2.792,2.792,0,0,1-1.4-.352A2.506,2.506,0,0,1,48.2-4.4a3.026,3.026,0,0,1-.352-1.483,3.1,3.1,0,0,1,.342-1.483,2.407,2.407,0,0,1,.962-.987A2.864,2.864,0,0,1,50.575-8.7a2.784,2.784,0,0,1,1.379.337,2.383,2.383,0,0,1,.942.947A2.853,2.853,0,0,1,53.234-6.008Zm-1.181-.357a1.287,1.287,0,0,0-.446-1,1.6,1.6,0,0,0-1.081-.377,1.452,1.452,0,0,0-1,.372,1.555,1.555,0,0,0-.5,1.007Zm4.057.466a3.025,3.025,0,0,1,.342-1.458,2.509,2.509,0,0,1,.933-.987A2.517,2.517,0,0,1,58.7-8.7a2.563,2.563,0,0,1,1.057.233,2.162,2.162,0,0,1,.828.62v-2.639h1.141v7.341H60.585v-.823a2.117,2.117,0,0,1-.769.655,2.385,2.385,0,0,1-1.126.258,2.446,2.446,0,0,1-1.3-.362,2.556,2.556,0,0,1-.933-1.012A3.113,3.113,0,0,1,56.111-5.9Zm4.474.02a1.979,1.979,0,0,0-.233-.982,1.636,1.636,0,0,0-.61-.635,1.6,1.6,0,0,0-.813-.218,1.625,1.625,0,0,0-.813.213,1.609,1.609,0,0,0-.61.625,1.951,1.951,0,0,0-.233.977,2.036,2.036,0,0,0,.233.992,1.645,1.645,0,0,0,.615.65,1.578,1.578,0,0,0,.809.223,1.6,1.6,0,0,0,.813-.218,1.628,1.628,0,0,0,.61-.64A2.008,2.008,0,0,0,60.585-5.879Zm7.42-.129a3.535,3.535,0,0,1-.04.556H63.789A1.517,1.517,0,0,0,64.275-4.4a1.534,1.534,0,0,0,1.071.4,1.323,1.323,0,0,0,1.29-.764h1.22a2.462,2.462,0,0,1-.9,1.235,2.634,2.634,0,0,1-1.612.481,2.792,2.792,0,0,1-1.4-.352,2.506,2.506,0,0,1-.972-.992,3.026,3.026,0,0,1-.352-1.483,3.1,3.1,0,0,1,.342-1.483,2.407,2.407,0,0,1,.962-.987A2.864,2.864,0,0,1,65.346-8.7a2.784,2.784,0,0,1,1.379.337,2.383,2.383,0,0,1,.942.947A2.853,2.853,0,0,1,68.005-6.008Zm-1.181-.357a1.287,1.287,0,0,0-.446-1A1.6,1.6,0,0,0,65.3-7.744a1.452,1.452,0,0,0-1,.372,1.555,1.555,0,0,0-.5,1.007Zm4.057,3.313a2.754,2.754,0,0,1-1.156-.233,2.03,2.03,0,0,1-.809-.635,1.583,1.583,0,0,1-.317-.9h1.171a.8.8,0,0,0,.332.58A1.207,1.207,0,0,0,70.862-4a1.278,1.278,0,0,0,.739-.184.554.554,0,0,0,.263-.471.484.484,0,0,0-.293-.456,5.485,5.485,0,0,0-.928-.327,8.952,8.952,0,0,1-1-.327,1.756,1.756,0,0,1-.67-.486,1.274,1.274,0,0,1-.283-.863,1.346,1.346,0,0,1,.258-.8,1.718,1.718,0,0,1,.739-.57A2.761,2.761,0,0,1,70.793-8.7a2.284,2.284,0,0,1,1.5.471,1.692,1.692,0,0,1,.61,1.285H71.775a.805.805,0,0,0-.3-.585,1.113,1.113,0,0,0-.724-.218,1.175,1.175,0,0,0-.684.169.522.522,0,0,0-.238.446.483.483,0,0,0,.159.367,1.131,1.131,0,0,0,.387.233q.228.084.675.213a7.338,7.338,0,0,1,.977.322,1.819,1.819,0,0,1,.66.481,1.273,1.273,0,0,1,.288.843,1.414,1.414,0,0,1-.258.833,1.71,1.71,0,0,1-.729.575A2.717,2.717,0,0,1,70.882-3.052ZM75.3-7.685v3.026a.581.581,0,0,0,.144.441.715.715,0,0,0,.491.134h.694v.942h-.893A1.721,1.721,0,0,1,74.562-3.5a1.472,1.472,0,0,1-.407-1.161V-7.685h-.645v-.923h.645V-9.967H75.3v1.359h1.329v.923Zm2.728-1.647a.7.7,0,0,1-.516-.208.7.7,0,0,1-.208-.516.7.7,0,0,1,.208-.516.7.7,0,0,1,.516-.208.689.689,0,0,1,.506.208.7.7,0,0,1,.208.516.7.7,0,0,1-.208.516A.689.689,0,0,1,78.024-9.332Zm.556.724v5.466H77.449V-8.607ZM82.608-8.7a2.451,2.451,0,0,1,1.156.268,1.9,1.9,0,0,1,.8.794,2.611,2.611,0,0,1,.288,1.27v3.224H83.729V-6.2a1.586,1.586,0,0,0-.367-1.126,1.306,1.306,0,0,0-1-.392,1.322,1.322,0,0,0-1.007.392A1.573,1.573,0,0,0,80.981-6.2v3.055H79.85V-8.607h1.131v.625a1.872,1.872,0,0,1,.709-.526A2.267,2.267,0,0,1,82.608-8.7Zm3.085,2.8a3.025,3.025,0,0,1,.342-1.458,2.509,2.509,0,0,1,.933-.987,2.5,2.5,0,0,1,1.3-.352,2.386,2.386,0,0,1,1.126.253,2.285,2.285,0,0,1,.769.63v-.794h1.141v5.466H90.167v-.813a2.246,2.246,0,0,1-.784.645,2.415,2.415,0,0,1-1.131.258,2.4,2.4,0,0,1-1.29-.362,2.568,2.568,0,0,1-.928-1.012A3.113,3.113,0,0,1,85.693-5.9Zm4.474.02a1.979,1.979,0,0,0-.233-.982,1.636,1.636,0,0,0-.61-.635,1.6,1.6,0,0,0-.813-.218A1.625,1.625,0,0,0,87.7-7.5a1.609,1.609,0,0,0-.61.625,1.951,1.951,0,0,0-.233.977,2.036,2.036,0,0,0,.233.992,1.645,1.645,0,0,0,.615.65,1.578,1.578,0,0,0,.809.223,1.6,1.6,0,0,0,.813-.218,1.628,1.628,0,0,0,.61-.64A2.008,2.008,0,0,0,90.167-5.879ZM93.9-7.685v3.026a.581.581,0,0,0,.144.441.715.715,0,0,0,.491.134h.694v.942h-.893A1.721,1.721,0,0,1,93.163-3.5a1.472,1.472,0,0,1-.407-1.161V-7.685h-.645v-.923h.645V-9.967H93.9v1.359h1.329v.923Zm2.728-1.647a.7.7,0,0,1-.516-.208.7.7,0,0,1-.208-.516.7.7,0,0,1,.208-.516.7.7,0,0,1,.516-.208.689.689,0,0,1,.506.208.7.7,0,0,1,.208.516.7.7,0,0,1-.208.516A.689.689,0,0,1,96.625-9.332Zm.556.724v5.466H96.05V-8.607Zm3.641,5.555a2.8,2.8,0,0,1-1.4-.352A2.53,2.53,0,0,1,98.44-4.4a2.992,2.992,0,0,1-.357-1.483,2.935,2.935,0,0,1,.367-1.478,2.535,2.535,0,0,1,1-.992,2.907,2.907,0,0,1,1.419-.347,2.907,2.907,0,0,1,1.419.347,2.535,2.535,0,0,1,1,.992,2.935,2.935,0,0,1,.367,1.478,2.874,2.874,0,0,1-.377,1.478,2.61,2.61,0,0,1-1.027,1A2.959,2.959,0,0,1,100.821-3.052Zm0-.982a1.683,1.683,0,0,0,.818-.208,1.587,1.587,0,0,0,.62-.625,2.009,2.009,0,0,0,.238-1.012,2.051,2.051,0,0,0-.228-1.007,1.54,1.54,0,0,0-.605-.62,1.655,1.655,0,0,0-.813-.208,1.627,1.627,0,0,0-.809.208,1.487,1.487,0,0,0-.59.62,2.128,2.128,0,0,0-.218,1.007,1.918,1.918,0,0,0,.451,1.364A1.491,1.491,0,0,0,100.821-4.034Zm6.5-4.663a2.451,2.451,0,0,1,1.156.268,1.9,1.9,0,0,1,.8.794,2.611,2.611,0,0,1,.288,1.27v3.224H108.44V-6.2a1.586,1.586,0,0,0-.367-1.126,1.306,1.306,0,0,0-1-.392,1.322,1.322,0,0,0-1.007.392,1.573,1.573,0,0,0-.372,1.126v3.055h-1.131V-8.607h1.131v.625a1.872,1.872,0,0,1,.709-.526A2.267,2.267,0,0,1,107.319-8.7Z" transform="translate(0.297 38.997)" fill="#ae2e11"/>
  <path id="Path_77" data-name="Path 77" d="M4.373-30.752h4.05V-8.588H4.373ZM-.562-32.746H13.358v4.17H-.562ZM21.6-8.339a7.45,7.45,0,0,1-3.709-.889,6.016,6.016,0,0,1-2.436-2.534,8.3,8.3,0,0,1-.853-3.871V-25.7a8.348,8.348,0,0,1,.853-3.88,5.954,5.954,0,0,1,2.436-2.534A7.506,7.506,0,0,1,21.6-33a7.54,7.54,0,0,1,3.724.881,5.954,5.954,0,0,1,2.436,2.534,8.348,8.348,0,0,1,.853,3.88v10.068a8.3,8.3,0,0,1-.853,3.871,6.016,6.016,0,0,1-2.436,2.534A7.483,7.483,0,0,1,21.6-8.339Zm0-4.336a2.9,2.9,0,0,0,1.521-.39,2.522,2.522,0,0,0,.993-1.1,3.854,3.854,0,0,0,.341-1.678v-9.67a3.813,3.813,0,0,0-.341-1.661,2.522,2.522,0,0,0-.993-1.1,2.9,2.9,0,0,0-1.521-.39,2.861,2.861,0,0,0-1.513.39,2.537,2.537,0,0,0-.985,1.1,3.813,3.813,0,0,0-.341,1.661v9.67a3.854,3.854,0,0,0,.341,1.678,2.537,2.537,0,0,0,.985,1.1A2.861,2.861,0,0,0,21.6-12.676ZM33.73-22.129h5.6a1.889,1.889,0,0,0,1.078-.307,2.028,2.028,0,0,0,.714-.872,3.152,3.152,0,0,0,.256-1.313v-1.412a3.388,3.388,0,0,0-.248-1.354,1.971,1.971,0,0,0-.706-.881,1.916,1.916,0,0,0-1.094-.307h-5.6v-4.17h5.6a6.736,6.736,0,0,1,3.3.773,5.218,5.218,0,0,1,2.157,2.226,7.331,7.331,0,0,1,.753,3.414v2.027a7.081,7.081,0,0,1-.76,3.373,5.312,5.312,0,0,1-2.157,2.2,6.691,6.691,0,0,1-3.29.773h-5.6ZM31.868-32.746h4.05V-8.588h-4.05ZM59.725-8.339a7.18,7.18,0,0,1-3.67-.889,5.726,5.726,0,0,1-2.328-2.584,9.478,9.478,0,0,1-.8-4.071V-32.746h4.05v16.98a3.342,3.342,0,0,0,.722,2.293,2.564,2.564,0,0,0,2.025.814,2.608,2.608,0,0,0,2.048-.814,3.319,3.319,0,0,0,.729-2.293v-16.98h4.066v16.864a9.4,9.4,0,0,1-.807,4.071,5.758,5.758,0,0,1-2.343,2.584A7.255,7.255,0,0,1,59.725-8.339Zm11.916-13.79h5.6a1.889,1.889,0,0,0,1.078-.307,2.028,2.028,0,0,0,.714-.872,3.152,3.152,0,0,0,.256-1.313v-1.412a3.388,3.388,0,0,0-.248-1.354,1.971,1.971,0,0,0-.706-.881,1.916,1.916,0,0,0-1.094-.307h-5.6v-4.17h5.6a6.736,6.736,0,0,1,3.3.773A5.218,5.218,0,0,1,82.7-29.747a7.331,7.331,0,0,1,.753,3.414v2.027a7.081,7.081,0,0,1-.76,3.373,5.312,5.312,0,0,1-2.157,2.2,6.691,6.691,0,0,1-3.29.773h-5.6ZM69.779-32.746h4.05V-8.588h-4.05Z" transform="translate(27.448 33.566)"/>
  <g id="Top-Up">
    <path id="Path_74" data-name="Path 74" d="M644.958-706.542l3.458,3.458h10.763v10.763l3.36,3.36,3.36,3.36V-710H641.5Z" transform="translate(-640.867 710)" fill="url(#linear-gradient)"/>
    <path id="Path_75" data-name="Path 75" d="M635-688.344V-676.2h24.3l-3.409-3.409-3.409-3.409H641.818v-10.665l-3.409-3.409L635-700.5Z" transform="translate(-635 701.425)" fill="url(#linear-gradient)"/>
  </g>
</svg>
